[img]http://img801.imageshack.us/img801/4751/itskindofafunnystory.jpg[/img]

[b][size=200][color=black]PLOT[/color][/size][/b]

[code]A clinically depressed teenager gets a new start 
after he checks himself into an adult psychiatric ward. [/code]

[b][size=200][color=black]IMDB[/color][/size][/b]

[code]http://www.imdb.com/title/tt0804497/[/code]

[b][size=200][color=black]MOVIE INFO[/color][/size][/b]

[code]Its Kind of a Funny Story [2010] BRRip x264 AAC-V3nom

Format                                   : MPEG-4
Format profile                           : Base Media / Version 2
Codec ID                                 : mp42
File size                                : 349 MiB
Duration                                 : 1h 41mn
Overall bit rate mode                    : Variable
Overall bit rate                         : 482 Kbps
Encoded date                             : UTC 2012-12-25 16:15:01
Tagged date                              : UTC 2012-12-25 16:56:28

Video
ID                                       : 1
Format                                   : AVC
Format/Info                              : Advanced Video Codec
Format profile                           : Main@L2.2
Format settings, CABAC                   : Yes
Format settings, ReFrames                : 4 frames
Codec ID                                 : avc1
Codec ID/Info                            : Advanced Video Coding
Duration                                 : 1h 41mn
Bit rate mode                            : Variable
Bit rate                                 : 351 Kbps
Width                                    : 640 pixels
Height                                   : 336 pixels
Display aspect ratio                     : 1.85:1
Original display aspect ratio            : 1.85:1
Frame rate mode                          : Variable
Frame rate                               : 23.976 fps
Minimum frame rate                       : 5.994 fps
Maximum frame rate                       : 23.981 fps
Color space                              : YUV
Chroma subsampling                       : 4:2:0
Bit depth                                : 8 bits
Scan type                                : Progressive
Bits/(Pixel*Frame)                       : 0.068
Stream size                              : 254 MiB (73%)
Writing library                          : x264 core 112

Audio
ID                                       : 2
Format                                   : AAC
Format/Info                              : Advanced Audio Codec
Format profile                           : LC
Codec ID                                 : 40
Duration                                 : 1h 39mn
Bit rate mode                            : Variable
Bit rate                                 : 128 Kbps
Maximum bit rate                         : 228 Kbps
Channel(s)                               : 2 channels
Channel positions                        : Front: L R
Sampling rate                            : 48.0 KHz
Compression mode                         : Lossy
Delay relative to video                  : 209ms
Stream size                              : 91.1 MiB (26%)
Language                                 : English
Encoded date                             : UTC 2012-12-25 16:15:01
Tagged date                              : UTC 2012-12-25 16:56:23[/code]

[b][size=200][color=black]SOURCE[/color][/size][/b]

[code]It's Kind of a Funny Story (2010) 720p BrRip x264 - YIFY(Thanks)[/code]

[b][size=200][color=black]SCREENSHOTS[/color][/size][/b]

[img]http://img543.imageshack.us/img543/9008/itskindofafunnystory201k.jpg[/img]

[img]http://kastatic.com/i2/users/133df62bbf28e62494bb17fe11078f1a.gif[/img][img]http://kastatic.com/i2/users/133df62bbf28e62494bb17fe11078f1a.gif[/img]